<svg xmlns="http://www.w3.org/2000/svg" xmlns:xlink="http://www.w3.org/1999/xlink" xmlns:serif="http://www.serif.com/" width="1153" height="514" viewBox="0 0 1153 514" version="1.1" xml:space="preserve" style="fill-rule:evenodd;clip-rule:evenodd;stroke-linejoin:round;stroke-miterlimit:2;">
    <g transform="matrix(1,0,0,1,-383.526,-283.448)">
        <g transform="matrix(1,0,0,1,0.0005,-2.86585)">
            <g transform="matrix(1,0,0,1,1430.22,760.69)">
                <path d="M0,11.878C-0.608,13.69 -1.459,15.322 -2.558,16.777C-3.657,18.232 -5.063,19.403 -6.778,20.288C-8.492,21.175 -10.372,21.618 -12.414,21.618C-15.073,21.618 -17.442,20.886 -19.523,19.421C-21.604,17.957 -23.18,16.069 -24.249,13.757C-25.319,11.445 -25.853,8.96 -25.853,6.3C-25.853,4.393 -25.544,2.533 -24.927,0.723C-24.312,-1.088 -23.444,-2.717 -22.326,-4.163C-21.21,-5.607 -19.788,-6.768 -18.063,-7.645C-16.339,-8.522 -14.456,-8.96 -12.414,-8.96C-10.448,-8.96 -8.623,-8.541 -6.937,-7.702C-5.25,-6.865 -3.844,-5.738 -2.718,-4.321C-1.589,-2.905 -0.703,-1.276 -0.058,0.563C0.586,2.404 0.91,4.316 0.91,6.3C0.91,8.208 0.606,10.067 0,11.878M6.229,-1.431C5.245,-3.984 3.902,-6.267 2.196,-8.281C0.491,-10.294 -1.632,-11.917 -4.177,-13.151C-6.719,-14.384 -9.447,-15 -12.355,-15C-15.188,-15 -17.867,-14.412 -20.39,-13.237C-22.915,-12.062 -25.063,-10.501 -26.834,-8.555C-28.607,-6.609 -30.01,-4.34 -31.041,-1.749C-32.071,0.842 -32.587,3.526 -32.587,6.3C-32.587,8.438 -32.28,10.553 -31.662,12.644C-31.046,14.735 -30.145,16.675 -28.96,18.468C-27.775,20.26 -26.378,21.84 -24.769,23.208C-23.16,24.576 -21.295,25.65 -19.176,26.43C-17.056,27.21 -14.822,27.601 -12.47,27.601C-9.64,27.601 -6.961,27.019 -4.436,25.852C-1.913,24.686 0.226,23.131 1.979,21.185C3.733,19.238 5.124,16.974 6.157,14.393C7.187,11.811 7.702,9.133 7.702,6.358C7.702,3.719 7.21,1.122 6.229,-1.431M-71.555,-20.303C-71.497,-20.544 -71.382,-20.853 -71.208,-21.229C-71.035,-21.604 -70.735,-21.922 -70.313,-22.182C-69.888,-22.442 -69.368,-22.572 -68.752,-22.572C-68.059,-22.572 -67.32,-22.361 -66.541,-21.937C-65.759,-21.512 -64.908,-21.088 -63.983,-20.665C-63.057,-20.241 -62.085,-20.029 -61.064,-20.029C-60.081,-20.029 -59.18,-20.236 -58.36,-20.65C-57.542,-21.064 -56.891,-21.561 -56.41,-22.139C-55.929,-22.717 -55.52,-23.343 -55.183,-24.018C-54.846,-24.692 -54.614,-25.269 -54.489,-25.752C-54.363,-26.233 -54.3,-26.599 -54.3,-26.85L-58.029,-26.85C-58.029,-26.753 -58.042,-26.619 -58.072,-26.445C-58.101,-26.272 -58.183,-26.036 -58.317,-25.737C-58.454,-25.438 -58.631,-25.164 -58.853,-24.914C-59.073,-24.663 -59.393,-24.441 -59.806,-24.249C-60.221,-24.056 -60.698,-23.96 -61.238,-23.96C-62.027,-23.96 -62.826,-24.176 -63.636,-24.61C-64.444,-25.043 -65.294,-25.477 -66.178,-25.91C-67.065,-26.344 -68,-26.561 -68.982,-26.561C-69.907,-26.561 -70.751,-26.363 -71.511,-25.969C-72.272,-25.573 -72.88,-25.091 -73.332,-24.523C-73.784,-23.954 -74.17,-23.339 -74.487,-22.673C-74.807,-22.009 -75.023,-21.426 -75.138,-20.925C-75.255,-20.424 -75.312,-20.029 -75.312,-19.74L-71.641,-19.74C-71.641,-19.875 -71.612,-20.063 -71.555,-20.303M-71.814,10.982L-64.85,-7.428L-58.087,10.982L-71.814,10.982ZM-67.971,-14.711L-84.445,27.312L-77.392,27.312L-72.999,15.895L-56.786,15.895L-52.364,27.312L-45.37,27.312L-61.7,-14.711L-67.971,-14.711ZM-105.964,18.713C-107.247,19.783 -108.577,20.545 -109.955,20.997C-111.332,21.45 -112.743,21.676 -114.188,21.676C-116.73,21.676 -119.053,20.959 -121.153,19.523C-123.253,18.088 -124.878,16.194 -126.023,13.844C-127.169,11.493 -127.744,8.96 -127.744,6.243C-127.744,4.759 -127.564,3.294 -127.208,1.85C-126.851,0.404 -126.298,-0.973 -125.546,-2.283C-124.794,-3.594 -123.9,-4.74 -122.857,-5.723C-121.817,-6.706 -120.566,-7.49 -119.101,-8.078C-117.636,-8.666 -116.056,-8.96 -114.361,-8.96C-113.302,-8.96 -112.265,-8.844 -111.254,-8.613C-110.243,-8.381 -109.236,-8.021 -108.234,-7.529C-107.233,-7.038 -106.308,-6.345 -105.46,-5.448C-104.613,-4.552 -103.909,-3.497 -103.35,-2.283L-98.148,-5.781C-99.555,-8.555 -101.649,-10.776 -104.433,-12.442C-107.217,-14.109 -110.449,-14.943 -114.129,-14.943C-116.615,-14.943 -118.957,-14.543 -121.153,-13.743C-123.351,-12.943 -125.248,-11.86 -126.847,-10.491C-128.447,-9.124 -129.828,-7.549 -130.995,-5.766C-132.16,-3.984 -133.031,-2.086 -133.61,-0.072C-134.188,1.941 -134.477,3.969 -134.477,6.011C-134.477,8.554 -134.019,11.069 -133.103,13.554C-132.189,16.04 -130.933,18.285 -129.332,20.288C-127.734,22.293 -125.762,23.959 -123.422,25.288C-121.081,26.618 -118.571,27.389 -115.893,27.601C-113.773,28.988 -112.713,30.452 -112.713,31.994C-112.713,32.899 -113.027,33.588 -113.654,34.06C-114.28,34.532 -115.152,34.768 -116.269,34.768C-117.56,34.768 -118.957,34.353 -120.459,33.525L-122.107,37.023C-119.892,38.159 -117.57,38.728 -115.143,38.728C-113.099,38.728 -111.509,38.227 -110.374,37.225C-109.236,36.223 -108.667,34.874 -108.667,33.179C-108.667,31.079 -109.68,29.18 -111.702,27.485C-108.581,27.042 -105.702,25.978 -103.06,24.291C-100.422,22.606 -98.562,20.472 -97.482,17.89L-103.003,14.768C-103.697,16.329 -104.685,17.644 -105.964,18.713M-159.176,6.59C-159.176,8.17 -159.287,9.658 -159.509,11.055C-159.731,12.452 -160.121,13.805 -160.68,15.115C-161.239,16.426 -161.942,17.553 -162.79,18.497C-163.637,19.441 -164.73,20.198 -166.069,20.766C-167.409,21.334 -168.937,21.618 -170.651,21.618C-172.346,21.618 -173.857,21.339 -175.188,20.78C-176.517,20.221 -177.606,19.479 -178.454,18.555C-179.303,17.63 -180.01,16.513 -180.579,15.202C-181.146,13.891 -181.547,12.529 -181.777,11.112C-182.009,9.696 -182.124,8.189 -182.124,6.59L-182.124,-14.711L-188.771,-14.711L-188.771,6.59C-188.771,8.844 -188.574,10.968 -188.179,12.962C-187.785,14.956 -187.135,16.863 -186.229,18.685C-185.323,20.506 -184.187,22.061 -182.817,23.352C-181.45,24.644 -179.731,25.674 -177.659,26.445C-175.587,27.215 -173.251,27.601 -170.651,27.601C-167.51,27.601 -164.75,27.052 -162.371,25.954C-159.99,24.855 -158.093,23.329 -156.676,21.373C-155.26,19.417 -154.206,17.201 -153.512,14.725C-152.819,12.249 -152.472,9.537 -152.472,6.59L-152.472,-14.711L-159.176,-14.711L-159.176,6.59ZM-220.809,6.82L-232.428,6.82L-232.428,-8.844L-221.185,-8.844C-219.413,-8.844 -217.852,-8.078 -216.504,-6.546C-215.156,-5.015 -214.481,-3.18 -214.481,-1.041C-214.481,1.137 -215.078,2.991 -216.272,4.523C-217.468,6.055 -218.98,6.82 -220.809,6.82M-210,6.69C-208.499,4.388 -207.747,1.811 -207.747,-1.041C-207.747,-2.717 -208.074,-4.374 -208.729,-6.012C-209.385,-7.649 -210.271,-9.114 -211.388,-10.405C-212.506,-11.695 -213.887,-12.736 -215.536,-13.527C-217.184,-14.317 -218.921,-14.711 -220.753,-14.711L-239.046,-14.711L-239.046,27.312L-232.428,27.312L-232.428,12.688L-222.66,12.688L-213.527,27.312L-206.071,27.312L-215.955,11.329C-213.488,10.54 -211.504,8.993 -210,6.69M-291.174,-8.844L-277.157,-8.844L-277.157,27.312L-270.452,27.312L-270.452,-8.844L-256.493,-8.844L-256.493,-14.711L-291.174,-14.711L-291.174,-8.844ZM-308.186,8.656C-308.919,7.837 -309.891,7.095 -311.104,6.43C-312.318,5.766 -313.581,5.216 -314.89,4.783C-316.201,4.349 -317.781,3.911 -319.63,3.468C-320.787,3.179 -321.722,2.944 -322.434,2.759C-323.146,2.577 -323.914,2.355 -324.732,2.095C-325.551,1.835 -326.195,1.59 -326.669,1.358C-327.14,1.127 -327.618,0.847 -328.099,0.52C-328.58,0.193 -328.942,-0.149 -329.182,-0.506C-329.423,-0.862 -329.621,-1.272 -329.774,-1.734C-329.93,-2.197 -330.006,-2.717 -330.006,-3.296C-330.006,-5.144 -329.328,-6.575 -327.968,-7.587C-326.61,-8.599 -324.563,-9.104 -321.828,-9.104C-319.515,-9.104 -317.271,-8.641 -315.093,-7.717C-312.917,-6.793 -311.375,-5.828 -310.47,-4.827L-307.463,-10.26C-311.759,-13.42 -316.49,-15 -321.654,-15C-323.833,-15 -325.845,-14.721 -327.694,-14.162C-329.544,-13.604 -331.154,-12.794 -332.521,-11.734C-333.889,-10.674 -334.962,-9.33 -335.744,-7.702C-336.523,-6.074 -336.915,-4.249 -336.915,-2.226C-336.915,-0.607 -336.663,0.795 -336.163,1.979C-335.662,3.165 -334.857,4.19 -333.749,5.057C-332.642,5.924 -331.364,6.657 -329.92,7.254C-328.475,7.851 -326.644,8.438 -324.428,9.017C-323.002,9.383 -321.871,9.681 -321.033,9.913C-320.195,10.144 -319.27,10.433 -318.258,10.78C-317.248,11.127 -316.466,11.464 -315.917,11.791C-315.367,12.12 -314.833,12.509 -314.313,12.962C-313.793,13.415 -313.427,13.921 -313.214,14.48C-313.002,15.038 -312.897,15.664 -312.897,16.358C-312.897,18.092 -313.604,19.421 -315.021,20.347C-316.437,21.271 -318.455,21.734 -321.076,21.734C-323.986,21.734 -326.813,21.151 -329.558,19.985C-332.305,18.819 -334.284,17.611 -335.498,16.358L-338.531,22.052C-336.143,23.882 -333.457,25.284 -330.47,26.257C-327.483,27.23 -324.39,27.716 -321.19,27.716C-319.457,27.716 -317.839,27.577 -316.335,27.297C-314.833,27.019 -313.427,26.566 -312.116,25.939C-310.807,25.313 -309.688,24.537 -308.763,23.612C-307.839,22.688 -307.113,21.551 -306.581,20.202C-306.053,18.854 -305.786,17.341 -305.786,15.664C-305.786,14.161 -306.004,12.823 -306.437,11.647C-306.871,10.472 -307.454,9.475 -308.186,8.656M-363.289,15.664L-387.104,-14.711L-392.538,-14.711L-392.538,27.312L-385.919,27.312L-385.919,-2.399L-362.422,27.312L-356.613,27.312L-356.613,-14.654L-363.289,-14.654L-363.289,15.664ZM-418.957,11.878C-419.563,13.69 -420.417,15.322 -421.515,16.777C-422.612,18.232 -424.019,19.403 -425.733,20.288C-427.449,21.175 -429.328,21.618 -431.369,21.618C-434.028,21.618 -436.399,20.886 -438.48,19.421C-440.561,17.957 -442.135,16.069 -443.205,13.757C-444.274,11.445 -444.81,8.96 -444.81,6.3C-444.81,4.393 -444.5,2.533 -443.884,0.723C-443.267,-1.088 -442.4,-2.717 -441.284,-4.163C-440.166,-5.607 -438.745,-6.768 -437.021,-7.645C-435.297,-8.522 -433.413,-8.96 -431.369,-8.96C-429.405,-8.96 -427.58,-8.541 -425.893,-7.702C-424.208,-6.865 -422.801,-5.738 -421.673,-4.321C-420.547,-2.905 -419.661,-1.276 -419.014,0.563C-418.369,2.404 -418.045,4.316 -418.045,6.3C-418.045,8.208 -418.349,10.067 -418.957,11.878M-416.76,-8.281C-418.464,-10.294 -420.59,-11.917 -423.132,-13.151C-425.677,-14.384 -428.402,-15 -431.313,-15C-434.144,-15 -436.822,-14.412 -439.347,-13.237C-441.872,-12.062 -444.019,-10.501 -445.792,-8.555C-447.564,-6.609 -448.965,-4.34 -449.996,-1.749C-451.029,0.842 -451.543,3.526 -451.543,6.3C-451.543,8.438 -451.235,10.553 -450.618,12.644C-450.002,14.735 -449.102,16.675 -447.916,18.468C-446.731,20.26 -445.334,21.84 -443.725,23.208C-442.118,24.576 -440.253,25.65 -438.133,26.43C-436.014,27.21 -433.779,27.601 -431.428,27.601C-428.595,27.601 -425.918,27.019 -423.393,25.852C-420.869,24.686 -418.731,23.131 -416.976,21.185C-415.225,19.238 -413.832,16.974 -412.801,14.393C-411.77,11.811 -411.254,9.133 -411.254,6.358C-411.254,3.719 -411.745,1.122 -412.729,-1.431C-413.71,-3.984 -415.055,-6.267 -416.76,-8.281M-474.798,18.713C-476.081,19.783 -477.411,20.545 -478.789,20.997C-480.166,21.45 -481.576,21.676 -483.022,21.676C-485.564,21.676 -487.887,20.959 -489.987,19.523C-492.087,18.088 -493.712,16.194 -494.857,13.844C-496.003,11.493 -496.578,8.96 -496.578,6.243C-496.578,4.759 -496.398,3.294 -496.042,1.85C-495.685,0.404 -495.132,-0.973 -494.38,-2.283C-493.628,-3.594 -492.734,-4.74 -491.691,-5.723C-490.651,-6.706 -489.4,-7.49 -487.935,-8.078C-486.47,-8.666 -484.89,-8.96 -483.195,-8.96C-482.135,-8.96 -481.099,-8.844 -480.088,-8.613C-479.077,-8.381 -478.07,-8.021 -477.068,-7.529C-476.067,-7.038 -475.142,-6.345 -474.294,-5.448C-473.447,-4.552 -472.743,-3.497 -472.184,-2.283L-466.982,-5.781C-468.389,-8.555 -470.483,-10.776 -473.267,-12.442C-476.051,-14.109 -479.283,-14.943 -482.963,-14.943C-485.449,-14.943 -487.791,-14.543 -489.987,-13.743C-492.184,-12.943 -494.082,-11.86 -495.681,-10.491C-497.281,-9.124 -498.662,-7.549 -499.829,-5.766C-500.994,-3.984 -501.865,-2.086 -502.444,-0.072C-503.022,1.941 -503.311,3.969 -503.311,6.011C-503.311,8.67 -502.81,11.295 -501.809,13.887C-500.807,16.479 -499.443,18.796 -497.719,20.838C-495.995,22.881 -493.866,24.528 -491.331,25.779C-488.798,27.032 -486.104,27.658 -483.254,27.658C-481,27.658 -478.753,27.293 -476.519,26.561C-474.284,25.828 -472.233,24.701 -470.362,23.179C-468.494,21.657 -467.146,19.894 -466.316,17.89L-471.837,14.768C-472.531,16.329 -473.519,17.644 -474.798,18.713M-540.708,8.613L-521.951,8.613L-521.951,3.093L-540.708,3.093L-540.708,-8.844L-519.031,-8.844L-519.031,-14.711L-547.326,-14.711L-547.326,27.312L-518.51,27.312L-518.51,21.445L-540.708,21.445L-540.708,8.613ZM-580.031,6.82L-591.65,6.82L-591.65,-8.844L-580.407,-8.844C-578.634,-8.844 -577.073,-8.078 -575.725,-6.546C-574.375,-5.015 -573.701,-3.18 -573.701,-1.041C-573.701,1.137 -574.299,2.991 -575.494,4.523C-576.687,6.055 -578.2,6.82 -580.031,6.82M-569.222,6.69C-567.718,4.388 -566.968,1.811 -566.968,-1.041C-566.968,-2.717 -567.295,-4.374 -567.95,-6.012C-568.604,-7.649 -569.491,-9.114 -570.609,-10.405C-571.726,-11.695 -573.109,-12.736 -574.757,-13.527C-576.403,-14.317 -578.143,-14.711 -579.972,-14.711L-598.268,-14.711L-598.268,27.312L-591.65,27.312L-591.65,12.688L-581.879,12.688L-572.749,27.312L-565.291,27.312L-575.176,11.329C-572.709,10.54 -570.724,8.993 -569.222,6.69M-665.526,8.613L-646.769,8.613L-646.769,3.093L-665.526,3.093L-665.526,-8.844L-643.85,-8.844L-643.85,-14.711L-672.144,-14.711L-672.144,27.312L-643.33,27.312L-643.33,21.445L-665.526,21.445L-665.526,8.613ZM-724.938,11.878C-725.544,13.69 -726.397,15.322 -727.496,16.777C-728.593,18.232 -730,19.403 -731.714,20.288C-733.43,21.175 -735.309,21.618 -737.35,21.618C-740.009,21.618 -742.38,20.886 -744.461,19.421C-746.542,17.957 -748.116,16.069 -749.186,13.757C-750.255,11.445 -750.791,8.96 -750.791,6.3C-750.791,4.393 -750.481,2.533 -749.866,0.723C-749.248,-1.088 -748.381,-2.717 -747.265,-4.163C-746.146,-5.607 -744.726,-6.768 -743.002,-7.645C-741.278,-8.522 -739.394,-8.96 -737.35,-8.96C-735.386,-8.96 -733.561,-8.541 -731.874,-7.702C-730.188,-6.865 -728.782,-5.738 -727.654,-4.321C-726.528,-2.905 -725.642,-1.276 -724.995,0.563C-724.35,2.404 -724.026,4.316 -724.026,6.3C-724.026,8.208 -724.331,10.067 -724.938,11.878M-722.741,-8.281C-724.445,-10.294 -726.571,-11.917 -729.113,-13.151C-731.658,-14.384 -734.383,-15 -737.293,-15C-740.125,-15 -742.803,-14.412 -745.328,-13.237C-747.853,-12.062 -750,-10.501 -751.773,-8.555C-753.545,-6.609 -754.946,-4.34 -755.977,-1.749C-757.01,0.842 -757.524,3.526 -757.524,6.3C-757.524,8.438 -757.216,10.553 -756.599,12.644C-755.983,14.735 -755.083,16.675 -753.896,18.468C-752.712,20.26 -751.315,21.84 -749.706,23.208C-748.099,24.576 -746.234,25.65 -744.114,26.43C-741.995,27.21 -739.76,27.601 -737.409,27.601C-734.576,27.601 -731.899,27.019 -729.375,25.852C-726.85,24.686 -724.712,23.131 -722.957,21.185C-721.206,19.238 -719.812,16.974 -718.782,14.393C-717.751,11.811 -717.235,9.133 -717.235,6.358C-717.235,3.719 -717.726,1.122 -718.71,-1.431C-719.692,-3.984 -721.036,-6.267 -722.741,-8.281M-796.494,-20.303C-796.436,-20.544 -796.32,-20.853 -796.147,-21.229C-795.974,-21.604 -795.673,-21.922 -795.251,-22.182C-794.826,-22.442 -794.306,-22.572 -793.69,-22.572C-792.997,-22.572 -792.258,-22.361 -791.479,-21.937C-790.698,-21.512 -789.847,-21.088 -788.921,-20.665C-787.996,-20.241 -787.023,-20.029 -786.003,-20.029C-785.019,-20.029 -784.119,-20.236 -783.299,-20.65C-782.48,-21.064 -781.83,-21.561 -781.349,-22.139C-780.867,-22.717 -780.458,-23.343 -780.121,-24.018C-779.784,-24.692 -779.552,-25.269 -779.428,-25.752C-779.301,-26.233 -779.239,-26.599 -779.239,-26.85L-782.967,-26.85C-782.967,-26.753 -782.981,-26.619 -783.01,-26.445C-783.04,-26.272 -783.122,-26.036 -783.256,-25.737C-783.392,-25.438 -783.569,-25.164 -783.792,-24.914C-784.012,-24.663 -784.331,-24.441 -784.744,-24.249C-785.159,-24.056 -785.636,-23.96 -786.176,-23.96C-786.965,-23.96 -787.764,-24.176 -788.574,-24.61C-789.383,-25.043 -790.232,-25.477 -791.117,-25.91C-792.003,-26.344 -792.938,-26.561 -793.92,-26.561C-794.846,-26.561 -795.689,-26.363 -796.449,-25.969C-797.211,-25.573 -797.819,-25.091 -798.271,-24.523C-798.723,-23.954 -799.108,-23.339 -799.426,-22.673C-799.746,-22.009 -799.961,-21.426 -800.077,-20.925C-800.193,-20.424 -800.25,-20.029 -800.25,-19.74L-796.58,-19.74C-796.58,-19.875 -796.55,-20.063 -796.494,-20.303M-796.753,10.982L-789.788,-7.428L-783.026,10.982L-796.753,10.982ZM-792.909,-14.711L-809.383,27.312L-802.331,27.312L-797.937,15.895L-781.725,15.895L-777.302,27.312L-770.308,27.312L-786.638,-14.711L-792.909,-14.711ZM-832.984,27.312L-826.366,27.312L-826.366,-14.711L-832.984,-14.711L-832.984,27.312ZM-860.948,15.664L-884.763,-14.711L-890.197,-14.711L-890.197,27.312L-883.579,27.312L-883.579,-2.399L-860.081,27.312L-854.271,27.312L-854.271,-14.654L-860.948,-14.654L-860.948,15.664ZM-917.555,6.59C-917.555,8.17 -917.667,9.658 -917.888,11.055C-918.11,12.452 -918.5,13.805 -919.059,15.115C-919.618,16.426 -920.322,17.553 -921.169,18.497C-922.017,19.441 -923.109,20.198 -924.448,20.766C-925.789,21.334 -927.316,21.618 -929.03,21.618C-930.725,21.618 -932.237,21.339 -933.567,20.78C-934.896,20.221 -935.985,19.479 -936.833,18.555C-937.682,17.63 -938.389,16.513 -938.958,15.202C-939.525,13.891 -939.926,12.529 -940.156,11.112C-940.388,9.696 -940.503,8.189 -940.503,6.59L-940.503,-14.711L-947.15,-14.711L-947.15,6.59C-947.15,8.844 -946.954,10.968 -946.558,12.962C-946.165,14.956 -945.514,16.863 -944.608,18.685C-943.702,20.506 -942.566,22.061 -941.197,23.352C-939.829,24.644 -938.111,25.674 -936.038,26.445C-933.967,27.215 -931.631,27.601 -929.03,27.601C-925.89,27.601 -923.129,27.052 -920.75,25.954C-918.37,24.855 -916.472,23.329 -915.056,21.373C-913.639,19.417 -912.585,17.201 -911.892,14.725C-911.198,12.249 -910.852,9.537 -910.852,6.59L-910.852,-14.711L-917.555,-14.711L-917.555,6.59Z" style="fill-rule:nonzero;"/>
            </g>
            <g transform="matrix(1,0,0,1,1416.52,301.345)">
                <path d="M0,25.97L0,-13.773L-15.189,-13.773L-15.189,39.742L22.506,39.742L22.506,25.97L0,25.97ZM-68.696,17.786L-63.345,4.642L-57.994,17.786L-68.696,17.786ZM-70.271,-13.773L-92.622,39.742L-77.59,39.742L-73.891,30.534L-52.722,30.534L-48.944,39.742L-33.991,39.742L-56.578,-13.773L-70.271,-13.773ZM-131.019,9.05L-141.093,9.05L-141.093,-0.944L-131.019,-0.944C-127.556,-0.944 -125.51,1.416 -125.51,4.093C-125.51,6.69 -127.635,9.05 -131.019,9.05M-110.95,3.62C-110.95,-6.297 -118.978,-13.773 -129.445,-13.773L-155.336,-13.773L-155.336,39.743L-141.093,39.743L-141.093,21.248L-135.031,21.248L-124.408,39.743L-108.432,39.743L-120.315,19.124C-114.65,16.132 -110.95,10.466 -110.95,3.62M-215.927,39.742L-177.601,39.742L-177.601,26.678L-201.446,26.678L-201.446,18.729L-185.707,18.729L-185.707,7.24L-201.446,7.24L-201.446,-0.709L-177.601,-0.709L-177.601,-13.773L-215.927,-13.773L-215.927,39.742ZM-265.973,25.811L-272.503,25.811L-272.503,0.156L-265.973,0.156C-257.473,0.156 -251.649,5.192 -251.649,12.985C-251.649,20.775 -257.473,25.811 -265.973,25.811M-265.265,-13.773L-287.063,-13.773L-287.063,39.742L-265.265,39.742C-248.974,39.742 -236.697,28.33 -236.697,12.985C-236.697,-2.36 -248.974,-13.773 -265.265,-13.773M-347.654,39.742L-309.328,39.742L-309.328,26.678L-333.173,26.678L-333.173,18.729L-317.434,18.729L-317.434,7.24L-333.173,7.24L-333.173,-0.709L-309.328,-0.709L-309.328,-13.773L-347.654,-13.773L-347.654,39.742ZM-407.615,39.742L-393.135,39.742L-393.135,20.225L-377.396,20.225L-377.396,8.106L-393.135,8.106L-393.135,-0.944L-369.289,-0.944L-369.289,-13.773L-407.615,-13.773L-407.615,39.742ZM-491.735,26.205C-498.896,26.205 -504.405,20.54 -504.405,12.985C-504.405,5.43 -498.896,-0.238 -491.735,-0.238C-484.731,-0.238 -479.301,5.43 -479.301,12.985C-479.301,20.54 -484.731,26.205 -491.735,26.205M-491.735,-15.031C-507.396,-15.031 -519.83,-2.598 -519.83,12.985C-519.83,28.565 -507.396,41.001 -491.735,41.001C-476.231,41.001 -463.797,28.565 -463.797,12.985C-463.797,-2.598 -476.231,-15.031 -491.735,-15.031M-554.843,14.479L-576.485,-13.773L-588.604,-13.773L-588.604,39.743L-574.36,39.743L-574.36,11.568L-552.797,39.743L-540.599,39.743L-540.599,-13.773L-554.843,-13.773L-554.843,14.479ZM-631.016,9.05L-641.089,9.05L-641.089,-0.944L-631.016,-0.944C-627.554,-0.944 -625.508,1.416 -625.508,4.093C-625.508,6.69 -627.632,9.05 -631.016,9.05M-610.948,3.62C-610.948,-6.297 -618.975,-13.773 -629.443,-13.773L-655.333,-13.773L-655.333,39.743L-641.089,39.743L-641.089,21.248L-635.03,21.248L-624.405,39.743L-608.43,39.743L-620.314,19.124C-614.647,16.132 -610.948,10.466 -610.948,3.62M-715.924,39.742L-677.599,39.742L-677.599,26.678L-701.443,26.678L-701.443,18.729L-685.704,18.729L-685.704,7.24L-701.443,7.24L-701.443,-0.709L-677.599,-0.709L-677.599,-13.773L-715.924,-13.773L-715.924,39.742ZM-762.821,19.203L-775.255,-13.773L-790.758,-13.773L-770.061,39.743L-755.66,39.743L-734.726,-13.773L-750.229,-13.773L-762.821,19.203ZM-832.305,26.205C-839.466,26.205 -844.975,20.54 -844.975,12.985C-844.975,5.43 -839.466,-0.238 -832.305,-0.238C-825.3,-0.238 -819.87,5.43 -819.87,12.985C-819.87,20.54 -825.3,26.205 -832.305,26.205M-832.305,-15.031C-847.965,-15.031 -860.4,-2.598 -860.4,12.985C-860.4,28.565 -847.965,41.001 -832.305,41.001C-816.801,41.001 -804.366,28.565 -804.366,12.985C-804.366,-2.598 -816.801,-15.031 -832.305,-15.031M-910.049,20.696L-895.647,20.696C-896.908,24.16 -900.527,26.993 -906.193,26.993C-914.298,26.993 -919.886,21.168 -919.886,13.143C-919.886,4.957 -914.298,-1.102 -906.429,-1.102C-901.393,-1.102 -897.064,1.336 -894.703,5.586L-882.426,-1.732C-887.384,-9.995 -896.435,-15.031 -906.272,-15.031C-921.854,-15.031 -934.288,-2.598 -934.288,13.062C-934.288,28.723 -921.933,41 -906.193,41C-891.397,41 -880.223,30.14 -880.223,13.456L-880.223,9.285L-910.049,9.285L-910.049,20.696Z" style="fill-rule:nonzero;"/>
            </g>
            <g transform="matrix(201.261,0,0,-201.261,1289.67,492.667)">
                <rect x="0.258" y="-0.465" width="0.484" height="0.93" style="fill:url(#_Linear1);"/>
            </g>
            <g transform="matrix(135.844,-1.13687e-13,-1.13687e-13,-135.844,1419.83,633.586)">
                <rect x="0.141" y="-0.348" width="0.717" height="0.697" style="fill:url(#_Linear2);"/>
            </g>
            <g transform="matrix(135.844,-1.13687e-13,-1.13687e-13,-135.844,1322.37,633.586)">
                <rect x="0.141" y="-0.348" width="0.717" height="0.697" style="fill:url(#_Linear3);"/>
            </g>
            <g transform="matrix(268.197,0,0,-268.197,1142.31,539.998)">
                <rect x="0.318" y="-0.525" width="0.363" height="1.051" style="fill:url(#_Linear4);"/>
            </g>
            <g transform="matrix(175.86,2.13163e-13,2.13163e-13,-175.86,971.816,602.628)">
                <rect x="0.238" y="-0.445" width="0.524" height="0.89" style="fill:url(#_Linear5);"/>
            </g>
            <g transform="matrix(147.019,1.27898e-13,1.27898e-13,-147.019,1085.02,450.322)">
                <rect x="0.141" y="-0.349" width="0.717" height="0.697" style="fill:url(#_Linear6);"/>
            </g>
            <g transform="matrix(-124.346,124.346,124.346,124.346,1208.84,535.259)">
                <path d="M0.279,-0.55L1,0.171L0.871,0.301C0.671,0.5 0.349,0.5 0.149,0.301C-0.05,0.102 -0.05,-0.221 0.149,-0.42L0.279,-0.55Z" style="fill:url(#_Linear7);fill-rule:nonzero;"/>
            </g>
            <g transform="matrix(-90.348,90.348,90.348,90.348,1118.94,412.211)">
                <path d="M0.163,-0.309C0.355,-0.5 0.665,-0.5 0.856,-0.309C1.048,-0.117 1.048,0.193 0.856,0.385L0.693,0.548L0,-0.145L0.163,-0.309Z" style="fill:url(#_Linear8);fill-rule:nonzero;"/>
            </g>
            <g transform="matrix(-79.534,79.534,79.534,79.534,547.639,419.757)">
                <path d="M0.289,-0.549L1,0.162L0.858,0.304C0.662,0.5 0.344,0.5 0.147,0.304C-0.049,0.107 -0.049,-0.211 0.147,-0.407L0.289,-0.549Z" style="fill:url(#_Linear9);fill-rule:nonzero;"/>
            </g>
            <g transform="matrix(148.869,0,0,-148.869,357.816,455.62)">
                <rect x="0.173" y="-0.38" width="0.655" height="0.76" style="fill:url(#_Linear10);"/>
            </g>
            <g transform="matrix(188.236,0,0,-188.236,338.132,596.539)">
                <rect x="0.241" y="-0.448" width="0.518" height="0.897" style="fill:url(#_Linear11);"/>
            </g>
            <g transform="matrix(-117.872,117.872,117.872,117.872,579.232,543.429)">
                <path d="M0.284,-0.549L1,0.166L0.864,0.302C0.666,0.5 0.346,0.5 0.148,0.302C-0.049,0.105 -0.049,-0.216 0.148,-0.414L0.284,-0.549Z" style="fill:url(#_Linear12);fill-rule:nonzero;"/>
            </g>
            <g transform="matrix(-5.68434e-14,157.126,157.126,5.68434e-14,670.838,564.694)">
                <path d="M0.029,-0.467L0.74,-0.467L0.74,0.698L0.029,0.236L0.029,-0.467Z" style="fill:url(#_Linear13);fill-rule:nonzero;"/>
            </g>
            <g transform="matrix(-85.11,85.11,85.11,85.11,667.596,469.284)">
                <path d="M1,0.175L0.35,0.825L-0,-0.825L1,0.175Z" style="fill:url(#_Linear14);fill-rule:nonzero;"/>
            </g>
            <g transform="matrix(79.1581,121.835,121.835,-79.1581,670.009,396.845)">
                <path d="M-0.259,-0.427L1.138,-0.427C1.314,-0.156 1.237,0.207 0.966,0.383C0.694,0.559 0.332,0.482 0.155,0.211L-0.259,-0.427Z" style="fill:url(#_Linear15);fill-rule:nonzero;"/>
            </g>
            <g transform="matrix(-224.729,224.729,224.729,224.729,1007.21,511.445)">
                <path d="M1,-0.246L0.254,0.5L0,-0.5L1,-0.246Z" style="fill:url(#_Linear16);fill-rule:nonzero;"/>
            </g>
            <g transform="matrix(-41.0074,41.0074,41.0074,41.0074,1046.38,631.599)">
                <path d="M1,0.203L0.405,0.797L0,-0.797L1,0.203Z" style="fill:url(#_Linear17);fill-rule:nonzero;"/>
            </g>
            <g transform="matrix(-34.1822,34.1822,34.1822,34.1822,770.399,655.731)">
                <path d="M1,-0.263L0.219,0.517L0,-0.517L1,-0.263Z" style="fill:url(#_Linear18);fill-rule:nonzero;"/>
            </g>
            <g transform="matrix(-124.112,124.112,124.112,124.112,949.8,590.469)">
                <path d="M1,-0.271L0.172,0.557C-0.057,0.328 -0.057,-0.042 0.172,-0.271C0.4,-0.5 0.771,-0.5 1,-0.271Z" style="fill:url(#_Linear19);fill-rule:nonzero;"/>
            </g>
        </g>
    </g>
    <defs>
        <linearGradient id="_Linear1" x1="0" y1="0" x2="1" y2="0" gradientUnits="userSpaceOnUse" gradientTransform="matrix(-0.707107,-0.707107,-0.707107,0.707107,0.853555,0.353554)"><stop offset="0" style="stop-color:rgb(255,235,0);stop-opacity:1"/><stop offset="0.99" style="stop-color:rgb(255,200,0);stop-opacity:1"/><stop offset="1" style="stop-color:rgb(255,200,0);stop-opacity:1"/></linearGradient>
        <linearGradient id="_Linear2" x1="0" y1="0" x2="1" y2="0" gradientUnits="userSpaceOnUse" gradientTransform="matrix(-0.707107,-0.707107,-0.707107,0.707107,0.853562,0.353557)"><stop offset="0" style="stop-color:rgb(0,116,255);stop-opacity:1"/><stop offset="1" style="stop-color:rgb(0,48,255);stop-opacity:1"/><stop offset="1" style="stop-color:rgb(0,48,255);stop-opacity:1"/></linearGradient>
        <linearGradient id="_Linear3" x1="0" y1="0" x2="1" y2="0" gradientUnits="userSpaceOnUse" gradientTransform="matrix(-0.707107,-0.707107,-0.707107,0.707107,0.853565,0.353558)"><stop offset="0" style="stop-color:rgb(119,119,119);stop-opacity:1"/><stop offset="0" style="stop-color:rgb(119,119,119);stop-opacity:1"/><stop offset="1" style="stop-color:rgb(44,44,44);stop-opacity:1"/></linearGradient>
        <linearGradient id="_Linear4" x1="0" y1="0" x2="1" y2="0" gradientUnits="userSpaceOnUse" gradientTransform="matrix(-0.707107,-0.707107,-0.707107,0.707107,0.853555,0.353554)"><stop offset="0" style="stop-color:rgb(109,227,109);stop-opacity:1"/><stop offset="0.49" style="stop-color:rgb(0,207,0);stop-opacity:1"/><stop offset="1" style="stop-color:rgb(0,177,0);stop-opacity:1"/></linearGradient>
        <linearGradient id="_Linear5" x1="0" y1="0" x2="1" y2="0" gradientUnits="userSpaceOnUse" gradientTransform="matrix(-0.707107,-0.707107,-0.707107,0.707107,0.853562,0.353557)"><stop offset="0" style="stop-color:rgb(255,54,54);stop-opacity:1"/><stop offset="0.55" style="stop-color:rgb(255,0,0);stop-opacity:1"/><stop offset="1" style="stop-color:rgb(199,0,0);stop-opacity:1"/></linearGradient>
        <linearGradient id="_Linear6" x1="0" y1="0" x2="1" y2="0" gradientUnits="userSpaceOnUse" gradientTransform="matrix(-0.707107,-0.707107,-0.707107,0.707107,0.853556,0.353555)"><stop offset="0" style="stop-color:rgb(0,116,255);stop-opacity:1"/><stop offset="1" style="stop-color:rgb(0,48,255);stop-opacity:1"/><stop offset="1" style="stop-color:rgb(0,48,255);stop-opacity:1"/></linearGradient>
        <linearGradient id="_Linear7" x1="0" y1="0" x2="1" y2="0" gradientUnits="userSpaceOnUse" gradientTransform="matrix(1,0,0,-1,0,-0.0497852)"><stop offset="0" style="stop-color:rgb(255,235,0);stop-opacity:1"/><stop offset="0.99" style="stop-color:rgb(255,200,0);stop-opacity:1"/><stop offset="1" style="stop-color:rgb(255,200,0);stop-opacity:1"/></linearGradient>
        <linearGradient id="_Linear8" x1="0" y1="0" x2="1" y2="0" gradientUnits="userSpaceOnUse" gradientTransform="matrix(1,0,0,-1,0,0.0478585)"><stop offset="0" style="stop-color:rgb(109,227,109);stop-opacity:1"/><stop offset="0.49" style="stop-color:rgb(0,207,0);stop-opacity:1"/><stop offset="1" style="stop-color:rgb(0,177,0);stop-opacity:1"/></linearGradient>
        <linearGradient id="_Linear9" x1="0" y1="0" x2="1" y2="0" gradientUnits="userSpaceOnUse" gradientTransform="matrix(1,0,0,-1,0,-0.0490799)"><stop offset="0" style="stop-color:rgb(0,116,255);stop-opacity:1"/><stop offset="1" style="stop-color:rgb(0,48,255);stop-opacity:1"/><stop offset="1" style="stop-color:rgb(0,48,255);stop-opacity:1"/></linearGradient>
        <linearGradient id="_Linear10" x1="0" y1="0" x2="1" y2="0" gradientUnits="userSpaceOnUse" gradientTransform="matrix(-0.707107,-0.707107,-0.707107,0.707107,0.853553,0.353553)"><stop offset="0" style="stop-color:rgb(109,227,109);stop-opacity:1"/><stop offset="0.49" style="stop-color:rgb(0,207,0);stop-opacity:1"/><stop offset="1" style="stop-color:rgb(0,177,0);stop-opacity:1"/></linearGradient>
        <linearGradient id="_Linear11" x1="0" y1="0" x2="1" y2="0" gradientUnits="userSpaceOnUse" gradientTransform="matrix(-0.707107,-0.707107,-0.707107,0.707107,0.853556,0.353555)"><stop offset="0" style="stop-color:rgb(255,235,0);stop-opacity:1"/><stop offset="0.99" style="stop-color:rgb(255,200,0);stop-opacity:1"/><stop offset="1" style="stop-color:rgb(255,200,0);stop-opacity:1"/></linearGradient>
        <linearGradient id="_Linear12" x1="0" y1="0" x2="1" y2="0" gradientUnits="userSpaceOnUse" gradientTransform="matrix(1,0,0,-1,0,-0.0494206)"><stop offset="0" style="stop-color:rgb(255,54,54);stop-opacity:1"/><stop offset="0.55" style="stop-color:rgb(255,0,0);stop-opacity:1"/><stop offset="1" style="stop-color:rgb(199,0,0);stop-opacity:1"/></linearGradient>
        <linearGradient id="_Linear13" x1="0" y1="0" x2="1" y2="0" gradientUnits="userSpaceOnUse" gradientTransform="matrix(0.707107,-0.707107,-0.707107,-0.707107,0.146445,0.35355)"><stop offset="0" style="stop-color:rgb(109,227,109);stop-opacity:1"/><stop offset="0.49" style="stop-color:rgb(0,207,0);stop-opacity:1"/><stop offset="1" style="stop-color:rgb(0,177,0);stop-opacity:1"/></linearGradient>
        <linearGradient id="_Linear14" x1="0" y1="0" x2="1" y2="0" gradientUnits="userSpaceOnUse" gradientTransform="matrix(1,0,0,-1,0,-3.52838e-06)"><stop offset="0" style="stop-color:rgb(255,235,0);stop-opacity:1"/><stop offset="0.99" style="stop-color:rgb(255,200,0);stop-opacity:1"/><stop offset="1" style="stop-color:rgb(255,200,0);stop-opacity:1"/></linearGradient>
        <linearGradient id="_Linear15" x1="0" y1="0" x2="1" y2="0" gradientUnits="userSpaceOnUse" gradientTransform="matrix(0.207698,-0.978193,-0.978193,-0.207698,0.345522,0.426588)"><stop offset="0" style="stop-color:rgb(0,116,255);stop-opacity:1"/><stop offset="1" style="stop-color:rgb(0,48,255);stop-opacity:1"/><stop offset="1" style="stop-color:rgb(0,48,255);stop-opacity:1"/></linearGradient>
        <linearGradient id="_Linear16" x1="0" y1="0" x2="1" y2="0" gradientUnits="userSpaceOnUse" gradientTransform="matrix(1,0,0,-1,0,-3.84996e-06)"><stop offset="0" style="stop-color:rgb(255,235,0);stop-opacity:1"/><stop offset="0.99" style="stop-color:rgb(255,200,0);stop-opacity:1"/><stop offset="1" style="stop-color:rgb(255,200,0);stop-opacity:1"/></linearGradient>
        <linearGradient id="_Linear17" x1="0" y1="0" x2="1" y2="0" gradientUnits="userSpaceOnUse" gradientTransform="matrix(1,0,0,-1,0,9.71775e-06)"><stop offset="0" style="stop-color:rgb(119,119,119);stop-opacity:1"/><stop offset="0" style="stop-color:rgb(119,119,119);stop-opacity:1"/><stop offset="1" style="stop-color:rgb(44,44,44);stop-opacity:1"/></linearGradient>
        <linearGradient id="_Linear18" x1="0" y1="0" x2="1" y2="0" gradientUnits="userSpaceOnUse" gradientTransform="matrix(1,0,0,-1,0,-3.97868e-06)"><stop offset="0" style="stop-color:rgb(119,119,119);stop-opacity:1"/><stop offset="0" style="stop-color:rgb(119,119,119);stop-opacity:1"/><stop offset="1" style="stop-color:rgb(44,44,44);stop-opacity:1"/></linearGradient>
        <linearGradient id="_Linear19" x1="0" y1="0" x2="1" y2="0" gradientUnits="userSpaceOnUse" gradientTransform="matrix(1,0,0,-1,0,0.0571896)"><stop offset="0" style="stop-color:rgb(0,116,255);stop-opacity:1"/><stop offset="1" style="stop-color:rgb(0,48,255);stop-opacity:1"/><stop offset="1" style="stop-color:rgb(0,48,255);stop-opacity:1"/></linearGradient>
    </defs>
</svg>